<?xml version="1.0" standalone="no"?><!DOCTYPE svg PUBLIC "-//W3C//DTD SVG 1.1//EN" "http://www.w3.org/Graphics/SVG/1.1/DTD/svg11.dtd"><svg t="1611552749505" class="icon" viewBox="0 0 1024 1024" version="1.1" xmlns="http://www.w3.org/2000/svg" p-id="2804" xmlns:xlink="http://www.w3.org/1999/xlink" width="200" height="200"><defs><style type="text/css"></style></defs><path d="M667.6 377.8V244h48.9c3.4 0 6.2-2.8 6.2-6.2v-39.9c0-3.4-2.8-6.2-6.2-6.2H335.4c-3.4 0-6.2 2.8-6.2 6.2v40c0 3.4 2.8 6.2 6.2 6.2h48.9v133.8l-84.2 217.9 32.8 20.5c0.1 0.1 0.2 0.2 0.3 0.2l9.8 6.2 0.2 0.2c22 12.7 47.1 19.4 72.5 19.3 34.6 0 67.2-12.1 93.2-33.8 35.6-29.9 80.6-46.2 127.1-46.2 40.3 0 78.8 12.1 111.4 34.3l6.1 3.9-85.9-222.6z m-110.9 123c-17 0-30.7-13.8-30.7-30.7 0-17 13.8-30.7 30.7-30.7 17 0 30.7 13.8 30.7 30.7 0.1 16.9-13.7 30.7-30.7 30.7z" fill="#64B5F6" p-id="2805"></path><path d="M808.9 741.3l-23-59.6-66-41.2-0.1 0.1c-0.5-0.4-1.2-0.8-1.7-1.2l-6.2-3.9-0.2-0.2c-22.3-13.5-48-20.7-74.7-20.7-34.6 0-67.2 12.1-93.2 33.8-35.6 29.9-80.6 46.2-127.1 46.2-40.8 0-79.8-12.4-112.7-35.1l-22.3-13.9-36.8 95.9c-2.2 5.7-3.3 11.7-3.3 17.7 0 27.1 22 49.2 49.2 49.2h472.3c6.1 0 12.1-1.2 17.7-3.3 25.3-9.6 38-38 28.3-63.3-0.2-0.3-0.2-0.4-0.2-0.5z" fill="#1E88E5" p-id="2806"></path></svg>